<svg xmlns="http://www.w3.org/2000/svg" viewBox="0 0 100 100">
  <defs>
    <linearGradient id="gradient" x1="0%" y1="0%" x2="100%" y2="100%">
      <stop offset="0%" style="stop-color:#2563eb;stop-opacity:1" />
      <stop offset="100%" style="stop-color:#1d4ed8;stop-opacity:1" />
    </linearGradient>
  </defs>
  <circle cx="50" cy="50" r="45" fill="url(#gradient)" stroke="#1e40af" stroke-width="2"/>
  <!-- Gear icon -->
  <g transform="translate(50,50)" fill="white">
    <circle r="8"/>
    <path d="M-6,-20 L6,-20 L8,-15 L-8,-15 Z"/>
    <path d="M-6,20 L6,20 L8,15 L-8,15 Z"/>
    <path d="M-20,-6 L-20,6 L-15,8 L-15,-8 Z"/>
    <path d="M20,-6 L20,6 L15,8 L15,-8 Z"/>
    <path d="M-14,-14 L-10,-18 L-6,-14 L-10,-10 Z"/>
    <path d="M14,-14 L18,-10 L14,-6 L10,-10 Z"/>
    <path d="M-14,14 L-10,10 L-6,14 L-10,18 Z"/>
    <path d="M14,14 L10,18 L14,6 L18,10 Z"/>
  </g>
</svg> 