<svg viewBox="0 0 32 32" xmlns="http://www.w3.org/2000/svg">
  <defs>
    <linearGradient id="grad1" x1="0%" y1="0%" x2="100%" y2="100%">
      <stop offset="0%" style="stop-color:#3b82f6;stop-opacity:1" />
      <stop offset="100%" style="stop-color:#6366f1;stop-opacity:1" />
    </linearGradient>
  </defs>
  <!-- Background circle -->
  <circle cx="16" cy="16" r="15" fill="url(#grad1)" stroke="#1e40af" stroke-width="1"/>
  <!-- Gear icon representing engineering -->
  <path d="M16 12c-2.2 0-4 1.8-4 4s1.8 4 4 4 4-1.8 4-4-1.8-4-4-4zm0 6c-1.1 0-2-0.9-2-2s0.9-2 2-2 2 0.9 2 2-0.9 2-2 2z" fill="white"/>
  <path d="M23 15h-1.4c-0.1-0.5-0.3-1-0.6-1.4l1-1c0.4-0.4 0.4-1 0-1.4l-1.4-1.4c-0.4-0.4-1-0.4-1.4 0l-1 1c-0.4-0.3-0.9-0.5-1.4-0.6V9c0-0.6-0.4-1-1-1h-2c-0.6 0-1 0.4-1 1v1.2c-0.5 0.1-1 0.3-1.4 0.6l-1-1c-0.4-0.4-1-0.4-1.4 0L9 11.2c-0.4 0.4-0.4 1 0 1.4l1 1c-0.3 0.4-0.5 0.9-0.6 1.4H8c-0.6 0-1 0.4-1 1v2c0 0.6 0.4 1 1 1h1.4c0.1 0.5 0.3 1 0.6 1.4l-1 1c-0.4 0.4-0.4 1 0 1.4l1.4 1.4c0.4 0.4 1 0.4 1.4 0l1-1c0.4 0.3 0.9 0.5 1.4 0.6V23c0 0.6 0.4 1 1 1h2c0.6 0 1-0.4 1-1v-1.2c0.5-0.1 1-0.3 1.4-0.6l1 1c0.4 0.4 1 0.4 1.4 0l1.4-1.4c0.4-0.4 0.4-1 0-1.4l-1-1c0.3-0.4 0.5-0.9 0.6-1.4H24c0.6 0 1-0.4 1-1v-2c0-0.6-0.4-1-1-1zm-7 5c-2.8 0-5-2.2-5-5s2.2-5 5-5 5 2.2 5 5-2.2 5-5 5z" fill="white" opacity="0.9"/>
</svg> 