<svg xmlns="http://www.w3.org/2000/svg" viewBox="0 0 32 32" fill="none">
  <!-- Professional gear icon for engineering portfolio -->
  <defs>
    <style>
      .gear-tooth { fill: #3b82f6; }
      .gear-center { fill: #ffffff; }
      .gear-hole { fill: #3b82f6; }
    </style>
  </defs>
  
  <!-- Gear teeth using a clean, simple design -->
  <path class="gear-tooth" d="M16 0 L18 4 L21 3 L22 7 L26 6 L27 10 L31 11 L30 15 L32 16 L30 17 L31 21 L27 22 L26 26 L22 25 L21 29 L18 28 L16 32 L14 28 L11 29 L10 25 L6 26 L5 22 L1 21 L2 17 L0 16 L2 15 L1 11 L5 10 L6 6 L10 7 L11 3 L14 4 Z"/>
  
  <!-- Inner gear body -->
  <circle class="gear-center" cx="16" cy="16" r="10"/>
  
  <!-- Center hole -->
  <circle class="gear-hole" cx="16" cy="16" r="4"/>
  
  <!-- Bolt holes for detail -->
  <circle class="gear-hole" cx="16" cy="8" r="1"/>
  <circle class="gear-hole" cx="24" cy="16" r="1"/>
  <circle class="gear-hole" cx="16" cy="24" r="1"/>
  <circle class="gear-hole" cx="8" cy="16" r="1"/>
</svg> 